<svg width="40" height="40" viewBox="0 0 40 40" fill="none" xmlns="http://www.w3.org/2000/svg">
<rect width="40" height="40" fill="#111EEE"/>
<mask id="path-2-outside-1_26_23" maskUnits="userSpaceOnUse" x="15" y="8" width="22" height="25" fill="black">
<rect fill="white" x="15" y="8" width="22" height="25"/>
<path d="M26.296 31.384C24.2693 31.384 22.5307 30.9147 21.08 29.976C19.6293 29.016 18.52 27.704 17.752 26.04C16.984 24.376 16.6 22.456 16.6 20.28C16.6 18.0613 17.0053 16.1307 17.816 14.488C18.648 12.824 19.8107 11.5333 21.304 10.616C22.7973 9.69867 24.5467 9.24 26.552 9.24C28.344 9.24 29.9547 9.656 31.384 10.488C32.8347 11.32 33.9227 12.5147 34.648 14.072L32.024 15.032C31.5547 14.072 30.84 13.2933 29.88 12.696C28.9413 12.0773 27.7787 11.768 26.392 11.768C25.1333 11.768 23.992 12.088 22.968 12.728C21.9653 13.368 21.1653 14.328 20.568 15.608C19.9707 16.8667 19.672 18.424 19.672 20.28C19.672 22.072 19.96 23.608 20.536 24.888C21.112 26.168 21.912 27.1493 22.936 27.832C23.9813 28.5147 25.1653 28.856 26.488 28.856C27.8747 28.856 29.0373 28.5573 29.976 27.96C30.936 27.3627 31.6613 26.5733 32.152 25.592L34.776 26.552C34.008 28.1307 32.8773 29.336 31.384 30.168C29.8907 30.9787 28.1947 31.384 26.296 31.384Z"/>
</mask>
<path d="M26.296 31.384C24.2693 31.384 22.5307 30.9147 21.08 29.976C19.6293 29.016 18.52 27.704 17.752 26.04C16.984 24.376 16.6 22.456 16.6 20.28C16.6 18.0613 17.0053 16.1307 17.816 14.488C18.648 12.824 19.8107 11.5333 21.304 10.616C22.7973 9.69867 24.5467 9.24 26.552 9.24C28.344 9.24 29.9547 9.656 31.384 10.488C32.8347 11.32 33.9227 12.5147 34.648 14.072L32.024 15.032C31.5547 14.072 30.84 13.2933 29.88 12.696C28.9413 12.0773 27.7787 11.768 26.392 11.768C25.1333 11.768 23.992 12.088 22.968 12.728C21.9653 13.368 21.1653 14.328 20.568 15.608C19.9707 16.8667 19.672 18.424 19.672 20.28C19.672 22.072 19.96 23.608 20.536 24.888C21.112 26.168 21.912 27.1493 22.936 27.832C23.9813 28.5147 25.1653 28.856 26.488 28.856C27.8747 28.856 29.0373 28.5573 29.976 27.96C30.936 27.3627 31.6613 26.5733 32.152 25.592L34.776 26.552C34.008 28.1307 32.8773 29.336 31.384 30.168C29.8907 30.9787 28.1947 31.384 26.296 31.384Z" fill="white"/>
<path d="M21.08 29.976L20.5281 30.81L20.5367 30.8156L21.08 29.976ZM17.752 26.04L16.844 26.4591L16.844 26.4591L17.752 26.04ZM17.816 14.488L16.9216 14.0408L16.9193 14.0454L17.816 14.488ZM31.384 10.488L30.8809 11.3523L30.8865 11.3555L31.384 10.488ZM34.648 14.072L34.9916 15.0111L36.0143 14.637L35.5545 13.6498L34.648 14.072ZM32.024 15.032L31.1256 15.4712L31.5214 16.2807L32.3676 15.9711L32.024 15.032ZM29.88 12.696L29.3297 13.531L29.3406 13.5382L29.3517 13.5451L29.88 12.696ZM22.968 12.728L22.438 11.88L22.43 11.8851L22.968 12.728ZM20.568 15.608L21.4714 16.0368L21.4742 16.0309L20.568 15.608ZM22.936 27.832L22.3813 28.6641L22.3892 28.6693L22.936 27.832ZM29.976 27.96L29.4477 27.1109L29.4391 27.1163L29.976 27.96ZM32.152 25.592L32.4956 24.6529L31.6569 24.3461L31.2576 25.1448L32.152 25.592ZM34.776 26.552L35.6752 26.9895L36.1598 25.9934L35.1196 25.6129L34.776 26.552ZM31.384 30.168L31.8611 31.0469L31.8707 31.0416L31.384 30.168ZM26.296 30.384C24.4281 30.384 22.8857 29.9533 21.6233 29.1364L20.5367 30.8156C22.1756 31.876 24.1105 32.384 26.296 32.384V30.384ZM21.6319 29.1421C20.3446 28.2902 19.3545 27.1257 18.66 25.6209L16.844 26.4591C17.6855 28.2823 18.9141 29.7418 20.5281 30.8099L21.6319 29.1421ZM18.66 25.6209C17.9629 24.1106 17.6 22.3381 17.6 20.28H15.6C15.6 22.5739 16.0051 24.6414 16.844 26.4591L18.66 25.6209ZM17.6 20.28C17.6 18.1829 17.9829 16.4095 18.7127 14.9305L16.9193 14.0454C16.0278 15.8518 15.6 17.9398 15.6 20.28H17.6ZM18.7104 14.9352C19.4643 13.4274 20.503 12.2816 21.8274 11.4681L20.7806 9.76392C19.1183 10.785 17.8317 12.2206 16.9216 14.0408L18.7104 14.9352ZM21.8274 11.4681C23.1416 10.6608 24.7042 10.24 26.552 10.24V8.24C24.3891 8.24 22.4531 8.73655 20.7806 9.76392L21.8274 11.4681ZM26.552 10.24C28.1825 10.24 29.617 10.6165 30.8809 11.3522L31.8871 9.62375C30.2923 8.69548 28.5055 8.24 26.552 8.24V10.24ZM30.8865 11.3555C32.153 12.0818 33.1008 13.1185 33.7415 14.4942L35.5545 13.6498C34.7446 11.9108 33.5163 10.5582 31.8815 9.62054L30.8865 11.3555ZM34.3044 13.1329L31.6804 14.0929L32.3676 15.9711L34.9916 15.0111L34.3044 13.1329ZM32.9224 14.5928C32.3657 13.4542 31.518 12.5374 30.4083 11.8469L29.3517 13.5451C30.162 14.0492 30.7436 14.6898 31.1256 15.4712L32.9224 14.5928ZM30.4303 11.861C29.2938 11.112 27.9284 10.768 26.392 10.768V12.768C27.6289 12.768 28.5889 13.0427 29.3297 13.531L30.4303 11.861ZM26.392 10.768C24.9542 10.768 23.6279 11.1363 22.438 11.88L23.498 13.576C24.3561 13.0397 25.3124 12.768 26.392 12.768V10.768ZM22.43 11.8851C21.2393 12.6451 20.3242 13.7657 19.6618 15.1851L21.4742 16.0309C22.0064 14.8903 22.6914 14.0909 23.506 13.5709L22.43 11.8851ZM19.6646 15.1793C18.9862 16.6087 18.672 18.3226 18.672 20.28H20.672C20.672 18.5254 20.9551 17.1247 21.4714 16.0367L19.6646 15.1793ZM18.672 20.28C18.672 22.1758 18.9763 23.8589 19.6241 25.2984L21.4479 24.4776C20.9437 23.3571 20.672 21.9682 20.672 20.28H18.672ZM19.6241 25.2984C20.2661 26.725 21.1799 27.8631 22.3813 28.6641L23.4907 26.9999C22.6441 26.4355 21.9579 25.611 21.4479 24.4776L19.6241 25.2984ZM22.3892 28.6693C23.607 29.4646 24.9833 29.856 26.488 29.856V27.856C25.3474 27.856 24.3557 27.5648 23.4828 26.9947L22.3892 28.6693ZM26.488 29.856C28.0181 29.856 29.3784 29.5256 30.5129 28.8037L29.4391 27.1163C28.6963 27.5891 27.7312 27.856 26.488 27.856V29.856ZM30.5043 28.8091C31.6161 28.1173 32.4706 27.191 33.0464 26.0392L31.2576 25.1448C30.8521 25.9557 30.2559 26.608 29.4477 27.1109L30.5043 28.8091ZM31.8084 26.5311L34.4324 27.4911L35.1196 25.6129L32.4956 24.6529L31.8084 26.5311ZM33.8768 26.1145C33.1958 27.5143 32.2066 28.5649 30.8973 29.2944L31.8707 31.0416C33.548 30.1071 34.8202 28.747 35.6752 26.9895L33.8768 26.1145ZM30.9069 29.2891C29.5766 30.0113 28.0479 30.384 26.296 30.384V32.384C28.3414 32.384 30.2048 31.946 31.8611 31.0469L30.9069 29.2891Z" fill="white" mask="url(#path-2-outside-1_26_23)"/>
<path d="M10.168 31.384C8.16268 31.384 6.57334 30.8507 5.40001 29.784C4.22668 28.696 3.58668 27.0853 3.48001 24.952L6.26401 24.152C6.22134 25.7733 6.59468 26.9787 7.38401 27.768C8.17334 28.536 9.10134 28.92 10.168 28.92C10.744 28.92 11.32 28.792 11.896 28.536C12.472 28.28 12.9413 27.8107 13.304 27.128C13.688 26.4453 13.88 25.464 13.88 24.184V9.62399H16.888V24.216C16.888 26.5413 16.2907 28.3227 15.096 29.56C13.9013 30.776 12.2587 31.384 10.168 31.384Z" fill="white"/>
<path fill-rule="evenodd" clip-rule="evenodd" d="M4.72006 30.5173C3.29825 29.1989 2.59646 27.3061 2.48125 25.0019L2.44165 24.2099L7.29956 22.814L7.26366 24.1783C7.22503 25.6463 7.56739 26.5339 8.08643 27.0562C8.69452 27.6457 9.37328 27.92 10.168 27.92C10.5914 27.92 11.0296 27.8268 11.4899 27.6222C11.8188 27.476 12.1387 27.19 12.4209 26.6588L12.4265 26.6482L12.4324 26.6377C12.6948 26.1713 12.88 25.3894 12.88 24.184V8.62399H17.888V24.216C17.888 26.7072 17.2458 28.7731 15.8154 30.2546L15.8094 30.2608C14.3857 31.7099 12.4622 32.384 10.168 32.384C7.98219 32.384 6.12968 31.7988 4.72733 30.5239L4.72006 30.5173ZM7.384 27.768C6.77216 27.1561 6.41026 26.2943 6.29832 25.1826C6.26585 24.8601 6.25441 24.5166 6.264 24.152L3.48 24.952C3.58667 27.0853 4.22667 28.696 5.4 29.784C6.57334 30.8507 8.16267 31.384 10.168 31.384C12.2587 31.384 13.9013 30.776 15.096 29.56C16.2907 28.3227 16.888 26.5413 16.888 24.216V9.62399H13.88V24.184C13.88 25.464 13.688 26.4453 13.304 27.128C12.9413 27.8107 12.472 28.28 11.896 28.536C11.32 28.792 10.744 28.92 10.168 28.92C9.10134 28.92 8.17334 28.536 7.384 27.768Z" fill="white"/>
</svg>
