<svg width="50" height="50" viewBox="0 0 50 50" fill="none" xmlns="http://www.w3.org/2000/svg">
<path d="M0 0H50V50H0V0Z" fill="#F7DF1E"/>
<path fill-rule="evenodd" clip-rule="evenodd" d="M49 1H1V49H49V1ZM0 0V50H50V0H0Z" fill="black"/>
<path d="M38.1993 43.5065C36.4395 43.5065 34.8678 43.0741 33.4844 42.2095C32.1009 41.3346 31.0074 40.0834 30.2037 38.4558C29.4103 36.818 29.0135 34.8547 29.0135 32.5659C29.0135 30.2974 29.4154 28.3443 30.219 26.7065C31.0328 25.0688 32.1416 23.8074 33.5454 22.9224C34.9594 22.0272 36.5616 21.5796 38.3519 21.5796C39.6235 21.5796 40.7476 21.8441 41.7241 22.373C42.7109 22.8918 43.5094 23.4971 44.1198 24.1888L42.7465 25.7758C42.1971 25.1756 41.5614 24.6975 40.8391 24.3414C40.1169 23.9854 39.3031 23.8074 38.3977 23.8074C37.0346 23.8074 35.8444 24.1634 34.8271 24.8755C33.8099 25.5774 33.0215 26.5794 32.462 27.8815C31.9025 29.1734 31.6228 30.7145 31.6228 32.5049C31.6228 34.3054 31.8924 35.8669 32.4315 37.1893C32.9808 38.5016 33.7539 39.5138 34.7509 40.2258C35.7478 40.9379 36.9278 41.2939 38.2909 41.2939C39.3081 41.2939 40.2186 41.0956 41.0222 40.6989C41.8258 40.3021 42.5684 39.7172 43.25 38.9441L44.6385 40.4547C43.8044 41.4414 42.8584 42.1993 41.8004 42.7283C40.7526 43.2471 39.5523 43.5065 38.1993 43.5065Z" fill="black"/>
<path d="M18.6528 43.5065C16.0894 43.5065 14.2329 42.3824 13.0834 40.1343L14.7924 39.0356C15.2399 39.8291 15.7689 40.4038 16.3793 40.7599C16.9998 41.1159 17.7068 41.2939 18.5002 41.2939C19.6803 41.2939 20.5602 40.9379 21.14 40.2258C21.7198 39.5138 22.0098 38.3337 22.0098 36.6858V21.9763H24.5275V36.9147C24.5275 38.1354 24.324 39.2442 23.9171 40.2411C23.5204 41.238 22.8897 42.0315 22.025 42.6215C21.1705 43.2115 20.0465 43.5065 18.6528 43.5065Z" fill="black"/>
<path fill-rule="evenodd" clip-rule="evenodd" d="M32.9521 43.0561L32.9499 43.0547C31.3944 42.0711 30.183 40.6725 29.3071 38.8985L29.3054 38.8952L29.3038 38.8918C28.4298 37.0877 28.0135 34.9679 28.0135 32.5659C28.0135 30.1811 28.436 28.0702 29.3212 26.266L29.3223 26.2638L29.3235 26.2616C30.2102 24.477 31.4371 23.0696 33.0113 22.0769C34.5964 21.0737 36.3863 20.5796 38.3519 20.5796C39.7632 20.5796 41.0534 20.8738 42.1949 21.4908C43.2651 22.0541 44.1651 22.7289 44.8696 23.5272L45.4477 24.1825L42.7674 27.2798L42.0088 26.4509C41.5425 25.9414 41.0066 25.5389 40.397 25.2384C39.8285 24.9581 39.1689 24.8074 38.3977 24.8074C37.2187 24.8074 36.2333 25.1118 35.4006 25.6947L35.3978 25.6967L35.3951 25.6986C34.5545 26.2786 33.8771 27.1212 33.3808 28.2763L33.3802 28.2776L33.3797 28.2789C32.8871 29.4162 32.6228 30.8155 32.6228 32.5049C32.6228 34.2064 32.8775 35.6325 33.3558 36.8075C33.8449 37.9742 34.5105 38.8252 35.3321 39.4121C36.1405 39.9895 37.1116 40.2939 38.2909 40.2939C39.1755 40.2939 39.9311 40.1223 40.5795 39.8022C41.2501 39.4711 41.8917 38.9727 42.4999 38.2828L43.2345 37.4495L45.9714 40.427L45.4022 41.1003C44.4887 42.1809 43.4376 43.0277 42.2476 43.6227L42.2459 43.6236L42.2441 43.6244C41.0383 44.2215 39.682 44.5065 38.1993 44.5065C36.2674 44.5065 34.5093 44.0293 32.9544 43.0575L32.9521 43.0561ZM41.7241 22.373C40.7476 21.8441 39.6235 21.5796 38.3519 21.5796C36.5616 21.5796 34.9594 22.0272 33.5454 22.9224C32.1416 23.8074 31.0328 25.0688 30.219 26.7065C29.4154 28.3443 29.0135 30.2974 29.0135 32.5659C29.0135 34.8547 29.4103 36.818 30.2037 38.4558C31.0074 40.0834 32.1009 41.3346 33.4844 42.2095C34.8678 43.0741 36.4395 43.5065 38.1993 43.5065C39.5523 43.5065 40.7526 43.2471 41.8004 42.7283C42.8584 42.1993 43.8044 41.4414 44.6385 40.4547L43.25 38.9441C43.0222 39.2025 42.7876 39.4398 42.5462 39.6561C42.0653 40.0871 41.5573 40.4347 41.0222 40.6989C40.2186 41.0956 39.3081 41.2939 38.2909 41.2939C36.9278 41.2939 35.7478 40.9379 34.7509 40.2258C33.7539 39.5138 32.9808 38.5016 32.4315 37.1893C31.8924 35.8669 31.6228 34.3054 31.6228 32.5049C31.6228 30.7145 31.9025 29.1734 32.462 27.8815C33.0215 26.5794 33.8099 25.5774 34.8271 24.8755C35.8444 24.1634 37.0346 23.8074 38.3977 23.8074C39.3031 23.8074 40.1169 23.9854 40.8391 24.3414C41.2612 24.5495 41.6538 24.7993 42.0168 25.0907C42.275 25.298 42.5182 25.5263 42.7465 25.7758L44.1198 24.1888C43.5094 23.4971 42.7109 22.8918 41.7241 22.373Z" fill="black"/>
<path fill-rule="evenodd" clip-rule="evenodd" d="M11.7806 39.783L15.1428 37.6216L15.6634 38.5443C16.0476 39.2254 16.4623 39.6497 16.8802 39.8943C17.3325 40.1531 17.8634 40.2939 18.5003 40.2939C19.4724 40.2939 20.0264 40.0097 20.3646 39.5944C20.722 39.1555 21.0098 38.2663 21.0098 36.6858V20.9763H25.5275V36.9147C25.5275 38.2462 25.3055 39.4843 24.8446 40.6151C24.3763 41.7896 23.6218 42.742 22.5904 43.4463C21.5209 44.1837 20.18 44.5065 18.6529 44.5065C17.2219 44.5065 15.9307 44.1914 14.82 43.5188C13.7083 42.8458 12.8383 41.8515 12.193 40.5895L11.7806 39.783ZM22.0251 42.6215C22.8897 42.0315 23.5204 41.238 23.9171 40.2411C24.3241 39.2442 24.5275 38.1354 24.5275 36.9147V21.9763H22.0098V36.6858C22.0098 38.3337 21.7199 39.5138 21.14 40.2258C20.5602 40.9379 19.6803 41.2939 18.5003 41.2939C17.7068 41.2939 16.9998 41.1159 16.3793 40.7599C15.9408 40.5041 15.5442 40.1354 15.1897 39.6537C15.0508 39.465 14.9184 39.259 14.7924 39.0356L13.0834 40.1343C14.2329 42.3824 16.0894 43.5065 18.6529 43.5065C20.0465 43.5065 21.1706 43.2115 22.0251 42.6215Z" fill="black"/>
</svg>
