<svg width="23" height="23" viewBox="0 0 23 23" fill="none" xmlns="http://www.w3.org/2000/svg">
<path fill-rule="evenodd" clip-rule="evenodd" d="M11.4304 0C14.3328 0.014 17.1338 1.1536 19.229 3.1621C21.3746 5.2191 22.6112 7.9773 22.7193 10.9476C22.8249 13.8484 21.8122 16.6978 19.8914 18.8739C17.7847 21.2605 14.8543 22.6313 11.6893 22.7221C11.581 22.7253 11.4726 22.7268 11.3643 22.7268C9.65889 22.7268 7.96939 22.3422 6.43909 21.6059L0.490994 22.9289C0.477375 22.9315 0.463321 22.9309 0.449996 22.9271C0.43667 22.9232 0.424455 22.9162 0.414361 22.9067C0.404266 22.8972 0.396583 22.8854 0.391945 22.8723C0.387308 22.8592 0.385852 22.8452 0.387694 22.8315L1.39249 16.8171C0.534993 15.2503 0.0563937 13.485 0.00479367 11.6893C-0.0822063 8.6552 1.01749 5.7689 3.10139 3.562C5.26199 1.2738 8.21249 0 11.3741 0H11.4304ZM11.3671 1.9717C11.2761 1.9717 11.1852 1.973 11.0943 1.9756C5.91779 2.1241 1.82719 6.4563 1.97569 11.6328C2.02109 13.2134 2.46639 14.7649 3.26349 16.1196L3.43649 16.4133L2.69199 20.4945L6.73069 19.5411L7.03569 19.6999C8.36639 20.3923 9.85749 20.7552 11.364 20.7552C11.4535 20.7552 11.5432 20.7539 11.6327 20.7513C16.8093 20.6028 20.8999 16.2707 20.7514 11.0942C20.6055 6.009 16.422 1.9717 11.3671 1.9717ZM7.43859 5.8741C7.62849 5.88 7.81879 5.8854 7.98479 5.8976C8.18769 5.9121 8.41229 5.9286 8.61129 6.4104C8.84749 6.9825 9.35829 8.4108 9.42519 8.5557C9.49209 8.7006 9.53449 8.8687 9.43359 9.0563C9.33269 9.2437 9.28149 9.3612 9.13409 9.5234C8.98649 9.6857 8.82299 9.8862 8.69099 10.01C8.54359 10.1479 8.39039 10.298 8.54799 10.5885C8.70549 10.8793 9.24899 11.831 10.0735 12.6135C11.1331 13.6191 11.9828 13.9509 12.3203 14.1083C12.4421 14.1652 12.5433 14.1921 12.6317 14.1921C12.7531 14.1921 12.8502 14.1413 12.9429 14.0473C13.1205 13.8674 13.6549 13.2438 13.8799 12.9569C13.9976 12.8068 14.1042 12.7536 14.2199 12.7536C14.3125 12.7536 14.411 12.7877 14.526 12.8335C14.7844 12.9368 16.165 13.6702 16.4458 13.8217C16.7266 13.9731 16.9144 14.0504 16.9821 14.1714C17.0497 14.293 17.0321 14.8641 16.774 15.5231C16.5159 16.1822 15.3321 16.7892 14.8078 16.8206C14.6543 16.8298 14.5033 16.8513 14.3068 16.8513C13.8317 16.8513 13.0909 16.7262 11.4082 16.0015C8.54509 14.7686 6.80649 11.739 6.66969 11.5444C6.53319 11.3495 5.55299 9.9613 5.59609 8.5571C5.63919 7.1531 6.39709 6.4853 6.66729 6.2078C6.92629 5.9417 7.22309 5.8737 7.41469 5.8737L7.43859 5.8741Z" fill="black"/>
</svg>
