<svg width="207" height="48" viewBox="0 0 207 48" fill="none" xmlns="http://www.w3.org/2000/svg">
<mask id="mask0_84_97" style="mask-type:luminance" maskUnits="userSpaceOnUse" x="16" y="11" width="24" height="25">
<path d="M16 11.5H40V35.5H16V11.5Z" fill="white"/>
</mask>
<g mask="url(#mask0_84_97)">
<path fill-rule="evenodd" clip-rule="evenodd" d="M27.7462 12.4473C30.6486 12.4612 33.4496 13.6009 35.5448 15.6094C37.6904 17.6664 38.927 20.4246 39.0351 23.3949C39.1407 26.2957 38.128 29.1451 36.2072 31.3212C34.1005 33.7078 31.1701 35.0786 28.0051 35.1694C27.8968 35.1725 27.7884 35.1741 27.6801 35.1741C25.9747 35.1741 24.2852 34.7895 22.7549 34.0532L16.8068 35.3762C16.7932 35.3788 16.7791 35.3782 16.7658 35.3743C16.7525 35.3705 16.7403 35.3635 16.7302 35.354C16.7201 35.3444 16.7124 35.3327 16.7077 35.3196C16.7031 35.3065 16.7016 35.2925 16.7035 35.2788L17.7083 29.2644C16.8508 27.6976 16.3722 25.9323 16.3206 24.1366C16.2336 21.1025 17.3333 18.2162 19.4172 16.0093C21.5778 13.7211 24.5283 12.4473 27.6899 12.4473H27.7462ZM27.6829 14.419C27.5919 14.419 27.501 14.4203 27.4101 14.4229C22.2336 14.5714 18.143 18.9036 18.2915 24.0801C18.3369 25.6607 18.7822 27.2122 19.5793 28.5669L19.7523 28.8606L19.0078 32.9418L23.0465 31.9884L23.3515 32.1472C24.6822 32.8396 26.1733 33.2025 27.6798 33.2025C27.7693 33.2025 27.859 33.2012 27.9485 33.1986C33.1251 33.0501 37.2157 28.718 37.0672 23.5415C36.9213 18.4563 32.7378 14.419 27.6829 14.419ZM23.7544 18.3214C23.9443 18.3273 24.1346 18.3327 24.3006 18.3449C24.5035 18.3594 24.7281 18.3759 24.9271 18.8577C25.1633 19.4298 25.6741 20.8581 25.741 21.003C25.8079 21.1479 25.8503 21.316 25.7494 21.5036C25.6485 21.691 25.5973 21.8085 25.4499 21.9707C25.3023 22.133 25.1388 22.3335 25.0068 22.4573C24.8594 22.5952 24.7062 22.7453 24.8638 23.0358C25.0213 23.3266 25.5648 24.2783 26.3893 25.0608C27.4489 26.0664 28.2986 26.3982 28.6361 26.5556C28.7579 26.6125 28.8591 26.6394 28.9475 26.6394C29.0689 26.6394 29.166 26.5886 29.2587 26.4946C29.4363 26.3147 29.9707 25.6911 30.1957 25.4042C30.3134 25.2541 30.42 25.2009 30.5357 25.2009C30.6283 25.2009 30.7268 25.235 30.8418 25.2808C31.1002 25.3841 32.4808 26.1175 32.7616 26.269C33.0424 26.4204 33.2302 26.4977 33.2979 26.6187C33.3655 26.7403 33.3479 27.3114 33.0898 27.9704C32.8317 28.6295 31.6479 29.2365 31.1236 29.2679C30.9701 29.2771 30.8191 29.2986 30.6226 29.2986C30.1475 29.2986 29.4067 29.1735 27.724 28.4488C24.8609 27.2159 23.1223 24.1863 22.9855 23.9917C22.849 23.7968 21.8688 22.4086 21.9119 21.0044C21.955 19.6004 22.7129 18.9326 22.9831 18.6551C23.2421 18.389 23.5389 18.321 23.7305 18.321L23.7544 18.3214Z" fill="#103928"/>
</g>
<path d="M56.7982 22.416H59.2302C59.1556 21.7547 58.9742 21.168 58.6862 20.656C58.3982 20.144 58.0302 19.7173 57.5822 19.376C57.1449 19.024 56.6436 18.7573 56.0782 18.576C55.5236 18.3947 54.9316 18.304 54.3022 18.304C53.4276 18.304 52.6382 18.4587 51.9342 18.768C51.2409 19.0773 50.6542 19.504 50.1742 20.048C49.6942 20.592 49.3262 21.232 49.0702 21.968C48.8142 22.6933 48.6862 23.4827 48.6862 24.336C48.6862 25.168 48.8142 25.9467 49.0702 26.672C49.3262 27.3867 49.6942 28.0107 50.1742 28.544C50.6542 29.0773 51.2409 29.4987 51.9342 29.808C52.6382 30.1067 53.4276 30.256 54.3022 30.256C55.0062 30.256 55.6516 30.1493 56.2382 29.936C56.8249 29.7227 57.3369 29.4133 57.7742 29.008C58.2116 28.6027 58.5636 28.112 58.8302 27.536C59.0969 26.96 59.2622 26.3147 59.3262 25.6H56.8942C56.7982 26.368 56.5316 26.9867 56.0942 27.456C55.6676 27.9253 55.0702 28.16 54.3022 28.16C53.7369 28.16 53.2569 28.0533 52.8622 27.84C52.4676 27.616 52.1476 27.3227 51.9022 26.96C51.6569 26.5973 51.4756 26.192 51.3582 25.744C51.2512 25.2823 51.1975 24.8099 51.1982 24.336C51.1982 23.8347 51.2516 23.3493 51.3582 22.88C51.4756 22.4107 51.6569 21.9947 51.9022 21.632C52.1476 21.2587 52.4676 20.9653 52.8622 20.752C53.2569 20.528 53.7369 20.416 54.3022 20.416C54.6116 20.416 54.9049 20.4693 55.1822 20.576C55.4702 20.672 55.7262 20.8107 55.9502 20.992C56.1742 21.1733 56.3609 21.3867 56.5102 21.632C56.6596 21.8667 56.7556 22.128 56.7982 22.416ZM60.8016 18.576V30H63.0736V25.664C63.0736 24.8213 63.2123 24.2187 63.4896 23.856C63.7669 23.4827 64.2149 23.296 64.8336 23.296C65.3776 23.296 65.7563 23.4667 65.9696 23.808C66.1829 24.1387 66.2896 24.6453 66.2896 25.328V30H68.5616V24.912C68.5616 24.4 68.5136 23.936 68.4176 23.52C68.3323 23.0933 68.1776 22.736 67.9536 22.448C67.7296 22.1493 67.4203 21.92 67.0256 21.76C66.6416 21.5893 66.1456 21.504 65.5376 21.504C65.1109 21.504 64.6736 21.616 64.2256 21.84C63.7776 22.0533 63.4096 22.4 63.1216 22.88H63.0736V18.576H60.8016ZM70.19 24.272C70.222 23.7387 70.3553 23.296 70.59 22.944C70.8198 22.5965 71.1263 22.3063 71.486 22.096C71.8486 21.8827 72.254 21.7333 72.702 21.648C73.1544 21.5526 73.6156 21.5043 74.078 21.504C74.494 21.504 74.9153 21.536 75.342 21.6C75.7686 21.6533 76.158 21.7653 76.51 21.936C76.862 22.1067 77.15 22.3467 77.374 22.656C77.598 22.9547 77.71 23.3547 77.71 23.856V28.16C77.71 28.5333 77.7313 28.8907 77.774 29.232C77.8166 29.5733 77.8913 29.8293 77.998 30H75.694C75.6517 29.8734 75.6143 29.7453 75.582 29.616C75.5606 29.478 75.5446 29.3392 75.534 29.2C75.1713 29.5733 74.7446 29.8347 74.254 29.984C73.7665 30.1328 73.2596 30.2083 72.75 30.208C72.3553 30.208 71.9873 30.16 71.646 30.064C71.3046 29.968 71.006 29.8187 70.75 29.616C70.494 29.4133 70.2913 29.1573 70.142 28.848C70.0033 28.5387 69.934 28.1707 69.934 27.744C69.934 27.2747 70.014 26.8907 70.174 26.592C70.3446 26.2827 70.558 26.0373 70.814 25.856C71.0806 25.6747 71.3793 25.5413 71.71 25.456C72.0465 25.361 72.3885 25.2862 72.734 25.232C73.0753 25.1787 73.4113 25.136 73.742 25.104C74.0726 25.072 74.366 25.024 74.622 24.96C74.878 24.896 75.0806 24.8053 75.23 24.688C75.3793 24.56 75.4486 24.3787 75.438 24.144C75.438 23.8987 75.3953 23.7067 75.31 23.568C75.2353 23.4187 75.1286 23.3067 74.99 23.232C74.862 23.1467 74.7073 23.0933 74.526 23.072C74.3553 23.04 74.1686 23.024 73.966 23.024C73.518 23.024 73.166 23.12 72.91 23.312C72.654 23.504 72.5046 23.824 72.462 24.272H70.19ZM75.438 25.952C75.342 26.0373 75.2193 26.1067 75.07 26.16C74.9175 26.206 74.7626 26.2434 74.606 26.272C74.4364 26.3055 74.2656 26.3321 74.094 26.352C73.9119 26.3734 73.7305 26.4 73.55 26.432C73.3769 26.4645 73.206 26.5073 73.038 26.56C72.878 26.6133 72.734 26.688 72.606 26.784C72.4886 26.8693 72.3926 26.9813 72.318 27.12C72.2433 27.2587 72.206 27.4347 72.206 27.648C72.206 27.8507 72.2433 28.0213 72.318 28.16C72.3897 28.2955 72.4942 28.411 72.622 28.496C72.75 28.5707 72.8993 28.624 73.07 28.656C73.2406 28.688 73.4166 28.704 73.598 28.704C74.046 28.704 74.3926 28.6293 74.638 28.48C74.8833 28.3307 75.0646 28.1547 75.182 27.952C75.2993 27.7387 75.3686 27.5253 75.39 27.312C75.422 27.0987 75.438 26.928 75.438 26.8V25.952ZM82.3535 21.728V19.248H80.0815V21.728H78.7055V23.248H80.0815V28.128C80.0815 28.544 80.1508 28.88 80.2895 29.136C80.4281 29.392 80.6148 29.5893 80.8495 29.728C81.0948 29.8667 81.3721 29.9573 81.6815 30C82.0015 30.0533 82.3375 30.08 82.6895 30.08C82.9135 30.08 83.1428 30.0747 83.3775 30.064C83.6121 30.0533 83.8255 30.032 84.0175 30V28.24C83.9064 28.2619 83.7942 28.2779 83.6815 28.288C83.5641 28.2987 83.4415 28.304 83.3135 28.304C82.9295 28.304 82.6735 28.24 82.5455 28.112C82.4175 27.984 82.3535 27.728 82.3535 27.344V23.248H84.0175V21.728H82.3535ZM91.5676 25.872C91.5676 25.5413 91.5996 25.216 91.6636 24.896C91.7276 24.576 91.8343 24.2933 91.9836 24.048C92.1436 23.8027 92.3516 23.6053 92.6076 23.456C92.8636 23.296 93.1836 23.216 93.5676 23.216C93.9516 23.216 94.2716 23.296 94.5276 23.456C94.7943 23.6053 95.0023 23.8027 95.1516 24.048C95.3116 24.2933 95.4236 24.576 95.4876 24.896C95.5516 25.216 95.5836 25.5413 95.5836 25.872C95.5836 26.2027 95.5516 26.528 95.4876 26.848C95.4236 27.1573 95.3116 27.44 95.1516 27.696C95.0023 27.9413 94.7943 28.1387 94.5276 28.288C94.2716 28.4373 93.9516 28.512 93.5676 28.512C93.1836 28.512 92.8636 28.4373 92.6076 28.288C92.3558 28.1426 92.1419 27.9398 91.9836 27.696C91.8343 27.44 91.7276 27.1573 91.6636 26.848C91.5994 26.5266 91.5673 26.1997 91.5676 25.872ZM89.2956 25.872C89.2956 26.5333 89.3969 27.1307 89.5996 27.664C89.8023 28.1973 90.0903 28.656 90.4636 29.04C90.8369 29.4133 91.2849 29.7013 91.8076 29.904C92.3303 30.1067 92.9169 30.208 93.5676 30.208C94.2183 30.208 94.8049 30.1067 95.3276 29.904C95.8609 29.7013 96.3143 29.4133 96.6876 29.04C97.0609 28.656 97.3489 28.1973 97.5516 27.664C97.7543 27.1307 97.8556 26.5333 97.8556 25.872C97.8556 25.2107 97.7543 24.6133 97.5516 24.08C97.3489 23.536 97.0609 23.0773 96.6876 22.704C96.3143 22.32 95.8609 22.0267 95.3276 21.824C94.8049 21.6107 94.2183 21.504 93.5676 21.504C92.9169 21.504 92.3303 21.6107 91.8076 21.824C91.2849 22.0267 90.8369 22.32 90.4636 22.704C90.0903 23.0773 89.8023 23.536 89.5996 24.08C89.3969 24.6133 89.2956 25.2107 89.2956 25.872ZM99.3329 21.728V30H101.605V25.664C101.605 24.8213 101.743 24.2187 102.021 23.856C102.298 23.4827 102.746 23.296 103.365 23.296C103.909 23.296 104.287 23.4667 104.501 23.808C104.714 24.1387 104.821 24.6453 104.821 25.328V30H107.093V24.912C107.093 24.4 107.045 23.936 106.949 23.52C106.863 23.0933 106.709 22.736 106.485 22.448C106.261 22.1493 105.951 21.92 105.557 21.76C105.173 21.5893 104.677 21.504 104.069 21.504C103.589 21.504 103.119 21.616 102.661 21.84C102.202 22.0533 101.829 22.4 101.541 22.88H101.493V21.728H99.3329ZM124.39 30L127.462 18.576H124.998L123.126 26.448H123.094L121.142 18.576H118.79L116.806 26.352H116.774L114.966 18.576H112.454L115.478 30H118.022L119.926 22.224H119.958L121.894 30H124.39ZM128.38 18.576V30H130.652V25.664C130.652 24.8213 130.79 24.2187 131.068 23.856C131.345 23.4827 131.793 23.296 132.412 23.296C132.956 23.296 133.334 23.4667 133.548 23.808C133.761 24.1387 133.868 24.6453 133.868 25.328V30H136.14V24.912C136.14 24.4 136.092 23.936 135.996 23.52C135.91 23.0933 135.756 22.736 135.532 22.448C135.308 22.1493 134.998 21.92 134.604 21.76C134.22 21.5893 133.724 21.504 133.116 21.504C132.689 21.504 132.252 21.616 131.804 21.84C131.356 22.0533 130.988 22.4 130.7 22.88H130.652V18.576H128.38ZM137.768 24.272C137.8 23.7387 137.933 23.296 138.168 22.944C138.403 22.592 138.701 22.3093 139.064 22.096C139.427 21.8827 139.832 21.7333 140.28 21.648C140.739 21.552 141.197 21.504 141.656 21.504C142.072 21.504 142.493 21.536 142.92 21.6C143.347 21.6533 143.736 21.7653 144.088 21.936C144.44 22.1067 144.728 22.3467 144.952 22.656C145.176 22.9547 145.288 23.3547 145.288 23.856V28.16C145.288 28.5333 145.309 28.8907 145.352 29.232C145.395 29.5733 145.469 29.8293 145.576 30H143.272C143.229 29.872 143.192 29.744 143.16 29.616C143.139 29.4779 143.123 29.3391 143.112 29.2C142.749 29.5733 142.323 29.8347 141.832 29.984C141.341 30.1333 140.84 30.208 140.328 30.208C139.933 30.208 139.565 30.16 139.224 30.064C138.883 29.968 138.584 29.8187 138.328 29.616C138.072 29.4133 137.869 29.1573 137.72 28.848C137.581 28.5387 137.512 28.1707 137.512 27.744C137.512 27.2747 137.592 26.8907 137.752 26.592C137.923 26.2827 138.136 26.0373 138.392 25.856C138.659 25.6747 138.957 25.5413 139.288 25.456C139.629 25.36 139.971 25.2853 140.312 25.232C140.653 25.1787 140.989 25.136 141.32 25.104C141.651 25.072 141.944 25.024 142.2 24.96C142.456 24.896 142.659 24.8053 142.808 24.688C142.957 24.56 143.027 24.3787 143.016 24.144C143.016 23.8987 142.973 23.7067 142.888 23.568C142.813 23.4187 142.707 23.3067 142.568 23.232C142.44 23.1467 142.285 23.0933 142.104 23.072C141.933 23.04 141.747 23.024 141.544 23.024C141.096 23.024 140.744 23.12 140.488 23.312C140.232 23.504 140.083 23.824 140.04 24.272H137.768ZM143.016 25.952C142.92 26.0373 142.797 26.1067 142.648 26.16C142.509 26.2027 142.355 26.24 142.184 26.272C142.024 26.304 141.853 26.3307 141.672 26.352C141.491 26.3733 141.309 26.4 141.128 26.432C140.957 26.464 140.787 26.5067 140.616 26.56C140.456 26.6133 140.312 26.688 140.184 26.784C140.067 26.8693 139.971 26.9813 139.896 27.12C139.821 27.2587 139.784 27.4347 139.784 27.648C139.784 27.8507 139.821 28.0213 139.896 28.16C139.971 28.2987 140.072 28.4107 140.2 28.496C140.328 28.5707 140.477 28.624 140.648 28.656C140.819 28.688 140.995 28.704 141.176 28.704C141.624 28.704 141.971 28.6293 142.216 28.48C142.461 28.3307 142.643 28.1547 142.76 27.952C142.877 27.7387 142.947 27.5253 142.968 27.312C143 27.0987 143.016 26.928 143.016 26.8V25.952ZM149.932 21.728V19.248H147.66V21.728H146.284V23.248H147.66V28.128C147.66 28.544 147.729 28.88 147.868 29.136C148.006 29.392 148.193 29.5893 148.428 29.728C148.673 29.8667 148.95 29.9573 149.26 30C149.58 30.0533 149.916 30.08 150.268 30.08C150.492 30.08 150.721 30.0747 150.956 30.064C151.19 30.0533 151.404 30.032 151.596 30V28.24C151.485 28.2618 151.373 28.2779 151.26 28.288C151.142 28.2987 151.02 28.304 150.891 28.304C150.508 28.304 150.252 28.24 150.124 28.112C149.996 27.984 149.932 27.728 149.932 27.344V23.248H151.596V21.728H149.932ZM154.437 27.312H152.277C152.298 27.8667 152.421 28.3307 152.645 28.704C152.879 29.0667 153.173 29.36 153.525 29.584C153.887 29.808 154.298 29.968 154.757 30.064C155.215 30.16 155.685 30.208 156.165 30.208C156.634 30.208 157.093 30.16 157.541 30.064C157.999 29.9787 158.405 29.824 158.757 29.6C159.109 29.376 159.391 29.0827 159.605 28.72C159.829 28.3467 159.941 27.888 159.941 27.344C159.941 26.96 159.866 26.64 159.717 26.384C159.567 26.1173 159.37 25.8987 159.125 25.728C158.879 25.5467 158.597 25.4027 158.277 25.296C157.962 25.1879 157.642 25.0971 157.317 25.024C157.003 24.9507 156.689 24.8813 156.373 24.816C156.063 24.752 155.786 24.6827 155.541 24.608C155.306 24.5227 155.114 24.416 154.965 24.288C154.815 24.16 154.741 23.9947 154.741 23.792C154.741 23.6213 154.783 23.488 154.869 23.392C154.954 23.2853 155.055 23.2053 155.173 23.152C155.301 23.0987 155.439 23.0667 155.589 23.056C155.738 23.0347 155.877 23.024 156.005 23.024C156.41 23.024 156.762 23.104 157.061 23.264C157.359 23.4133 157.525 23.7067 157.557 24.144H159.717C159.674 23.632 159.541 23.2107 159.317 22.88C159.103 22.5387 158.831 22.2667 158.501 22.064C158.17 21.8613 157.791 21.7173 157.365 21.632C156.949 21.5467 156.517 21.504 156.069 21.504C155.621 21.504 155.183 21.5467 154.757 21.632C154.33 21.7067 153.946 21.8453 153.605 22.048C153.263 22.24 152.986 22.5067 152.773 22.848C152.57 23.1893 152.469 23.6267 152.469 24.16C152.469 24.5227 152.543 24.832 152.693 25.088C152.842 25.3333 153.039 25.5413 153.285 25.712C153.53 25.872 153.807 26.0053 154.117 26.112C154.437 26.208 154.762 26.2933 155.093 26.368C155.903 26.5387 156.533 26.7093 156.981 26.88C157.439 27.0507 157.669 27.3067 157.669 27.648C157.669 27.8507 157.621 28.0213 157.525 28.16C157.429 28.288 157.306 28.3947 157.157 28.48C157.018 28.5547 156.858 28.6133 156.677 28.656C156.506 28.688 156.341 28.704 156.181 28.704C155.96 28.7043 155.74 28.6774 155.525 28.624C155.322 28.5707 155.141 28.4907 154.981 28.384C154.821 28.2671 154.685 28.1204 154.581 27.952C154.485 27.7707 154.437 27.5573 154.437 27.312ZM164.39 25.584L165.878 21.392H165.91L167.35 25.584H164.39ZM164.63 18.576L160.31 30H162.838L163.734 27.456H168.006L168.87 30H171.478L167.206 18.576H164.63ZM176.399 28.512C176.037 28.512 175.727 28.4373 175.471 28.288C175.215 28.1387 175.007 27.9467 174.847 27.712C174.698 27.4667 174.586 27.184 174.511 26.864C174.447 26.5426 174.415 26.2157 174.415 25.888C174.415 25.5467 174.447 25.216 174.511 24.896C174.575 24.576 174.682 24.2933 174.831 24.048C174.991 23.8027 175.194 23.6053 175.439 23.456C175.695 23.296 176.01 23.216 176.383 23.216C176.746 23.216 177.05 23.296 177.295 23.456C177.551 23.6053 177.759 23.808 177.919 24.064C178.079 24.3093 178.191 24.592 178.255 24.912C178.33 25.232 178.367 25.5573 178.367 25.888C178.367 26.2187 178.335 26.544 178.271 26.864C178.207 27.184 178.095 27.4667 177.935 27.712C177.786 27.9467 177.583 28.1387 177.327 28.288C177.082 28.4373 176.773 28.512 176.399 28.512ZM172.223 21.728V32.896H174.495V28.976H174.527C174.805 29.3813 175.157 29.6907 175.583 29.904C176.021 30.1067 176.495 30.208 177.007 30.208C177.615 30.208 178.143 30.0907 178.591 29.856C179.05 29.6213 179.429 29.3067 179.727 28.912C180.037 28.5173 180.266 28.064 180.415 27.552C180.565 27.04 180.639 26.5067 180.639 25.952C180.639 25.3653 180.565 24.8053 180.415 24.272C180.266 23.728 180.037 23.2533 179.727 22.848C179.418 22.4427 179.029 22.1173 178.559 21.872C178.09 21.6267 177.53 21.504 176.879 21.504C176.367 21.504 175.898 21.6053 175.471 21.808C175.045 22.0107 174.693 22.336 174.415 22.784H174.383V21.728H172.223ZM186.181 28.512C185.818 28.512 185.509 28.4373 185.253 28.288C184.997 28.1387 184.789 27.9467 184.629 27.712C184.479 27.4667 184.367 27.184 184.293 26.864C184.229 26.5426 184.197 26.2157 184.197 25.888C184.197 25.5467 184.229 25.216 184.293 24.896C184.357 24.576 184.463 24.2933 184.613 24.048C184.773 23.8027 184.975 23.6053 185.221 23.456C185.477 23.296 185.791 23.216 186.165 23.216C186.527 23.216 186.831 23.296 187.077 23.456C187.333 23.6053 187.541 23.808 187.701 24.064C187.861 24.3093 187.973 24.592 188.037 24.912C188.111 25.232 188.149 25.5573 188.149 25.888C188.149 26.2187 188.117 26.544 188.053 26.864C187.989 27.184 187.877 27.4667 187.717 27.712C187.567 27.9467 187.365 28.1387 187.109 28.288C186.863 28.4373 186.554 28.512 186.181 28.512ZM182.005 21.728V32.896H184.277V28.976H184.309C184.586 29.3813 184.938 29.6907 185.365 29.904C185.802 30.1067 186.277 30.208 186.789 30.208C187.397 30.208 187.925 30.0907 188.373 29.856C188.831 29.6213 189.21 29.3067 189.509 28.912C189.818 28.5173 190.047 28.064 190.197 27.552C190.346 27.04 190.421 26.5067 190.421 25.952C190.421 25.3653 190.346 24.8053 190.197 24.272C190.047 23.728 189.818 23.2533 189.509 22.848C189.199 22.4427 188.81 22.1173 188.341 21.872C187.871 21.6267 187.311 21.504 186.661 21.504C186.149 21.504 185.679 21.6053 185.253 21.808C184.826 22.0107 184.474 22.336 184.197 22.784H184.165V21.728H182.005Z" fill="#103928"/>
</svg>
